<svg width="24" height="18" viewBox="0 0 24 18" fill="none" xmlns="http://www.w3.org/2000/svg">
<path d="M8.69506 1.30591C8.8985 1.50883 9.0135 1.78393 9.015 2.07126C9.0165 2.3586 8.90437 2.63488 8.70306 2.83991L3.64306 7.91691H22.9251C23.2067 7.92547 23.474 8.04338 23.6702 8.24564C23.8664 8.4479 23.9761 8.71862 23.9761 9.00041C23.9761 9.28221 23.8664 9.55293 23.6702 9.75519C23.474 9.95745 23.2067 10.0754 22.9251 10.0839H3.64306L8.71106 15.1609C8.90974 15.3673 9.02007 15.6431 9.01858 15.9295C9.01708 16.216 8.90388 16.4906 8.70306 16.6949C8.60234 16.7946 8.48297 16.8735 8.35177 16.927C8.22057 16.9805 8.08011 17.0077 7.9384 17.007C7.7967 17.0062 7.65653 16.9776 7.52589 16.9227C7.39526 16.8678 7.27673 16.7876 7.17706 16.6869L0.308058 9.76691C0.214284 9.66644 0.138209 9.5508 0.0830583 9.42491C0.0268035 9.29316 -0.00146084 9.15116 5.81311e-05 9.00791C-0.000435408 8.72408 0.110106 8.45132 0.308058 8.24791L7.17706 1.32891C7.27441 1.22635 7.39127 1.14426 7.52078 1.08747C7.65028 1.03067 7.78983 1.00031 7.93122 0.998169C8.07262 0.996026 8.21302 1.02214 8.34418 1.07499C8.47535 1.12784 8.59464 1.20635 8.69506 1.30591Z" fill="white"/>
</svg>
