<svg width="24" height="18" viewBox="0 0 24 18" fill="none" xmlns="http://www.w3.org/2000/svg">
<path d="M15.305 1.30597C15.1016 1.50889 14.9866 1.78398 14.9851 2.07132C14.9836 2.35866 15.0957 2.63494 15.297 2.83997L20.365 7.91697H1.07501C0.793341 7.92553 0.526079 8.04343 0.32987 8.24569C0.13366 8.44795 0.0239258 8.71868 0.0239258 9.00047C0.0239258 9.28226 0.13366 9.55298 0.32987 9.75524C0.526079 9.95751 0.793341 10.0754 1.07501 10.084H20.357L15.289 15.161C15.0903 15.3674 14.98 15.6431 14.9815 15.9296C14.983 16.2161 15.0962 16.4907 15.297 16.695C15.3977 16.7947 15.5171 16.8735 15.6483 16.9271C15.7795 16.9806 15.92 17.0078 16.0617 17.007C16.2034 17.0063 16.3435 16.9776 16.4742 16.9227C16.6048 16.8678 16.7233 16.7877 16.823 16.687L23.692 9.76797C23.7858 9.66749 23.8619 9.55186 23.917 9.42597C23.9733 9.29422 24.0015 9.15222 24 9.00897C24.0002 8.72549 23.8897 8.45313 23.692 8.24997L16.825 1.33097C16.7278 1.22797 16.6109 1.14546 16.4813 1.08831C16.3517 1.03116 16.2119 1.00052 16.0703 0.99819C15.9286 0.995861 15.788 1.02189 15.6565 1.07475C15.5251 1.12761 15.4056 1.20622 15.305 1.30597Z" fill="white"/>
</svg>
